<mxfile host="app.diagrams.net" modified="2022-11-22T09:35:19.235Z" agent="5.0 (Windows)" etag="Y--rU84MT9Yvv7CFKcqX" version="20.5.3" type="github">
  <diagram id="Ttgx1MsBNz1i2wVF5Fhu" name="Page-1">
    <mxGraphModel dx="1038" dy="652" grid="1" gridSize="10" guides="1" tooltips="1" connect="1" arrows="1" fold="1" page="1" pageScale="1" pageWidth="850" pageHeight="1100" math="0" shadow="0">
      <root>
        <mxCell id="0" />
        <mxCell id="1" parent="0" />
        <mxCell id="Y4LHihzrcTk4XJ-8Ax3h-1" value="New incoming message" style="ellipse;shape=cloud;whiteSpace=wrap;html=1;" vertex="1" parent="1">
          <mxGeometry x="370" y="30" width="110" height="80" as="geometry" />
        </mxCell>
        <mxCell id="Y4LHihzrcTk4XJ-8Ax3h-3" value="if already processed" style="rhombus;whiteSpace=wrap;html=1;" vertex="1" parent="1">
          <mxGeometry x="353" y="140" width="145" height="80" as="geometry" />
        </mxCell>
        <mxCell id="Y4LHihzrcTk4XJ-8Ax3h-4" value="" style="endArrow=classic;html=1;rounded=0;exitX=0.55;exitY=0.95;exitDx=0;exitDy=0;exitPerimeter=0;entryX=0.5;entryY=0;entryDx=0;entryDy=0;" edge="1" parent="1" source="Y4LHihzrcTk4XJ-8Ax3h-1" target="Y4LHihzrcTk4XJ-8Ax3h-3">
          <mxGeometry width="50" height="50" relative="1" as="geometry">
            <mxPoint x="400" y="370" as="sourcePoint" />
            <mxPoint x="450" y="320" as="targetPoint" />
          </mxGeometry>
        </mxCell>
      </root>
    </mxGraphModel>
  </diagram>
</mxfile>
